<svg width="370" height="132" viewBox="0 0 370 132" fill="none" xmlns="http://www.w3.org/2000/svg">
<path d="M370 0.594238L99.3121 117.262C76.8652 126.875 58.0105 131.697 42.7633 131.697C25.4965 131.697 12.9626 125.58 5.19259 113.329C0.305466 105.464 -1.1283 95.492 0.875887 83.3976C2.88007 71.3033 8.21428 58.4286 16.8477 44.7269C24.0473 33.6469 35.8412 19.0869 52.26 1.03119C46.691 9.90557 42.6071 19.6496 40.1733 29.8704C35.8566 48.5191 39.7416 62.2052 51.8284 70.9443C57.5788 75.0174 65.4876 77.0617 75.5702 77.0617C83.6178 77.0617 92.6829 75.7509 102.765 73.1291L370 0.594238Z" fill="white"/>
</svg>
